#!OML:ASF E:/inclinewalkrobotboard/Project1/Captureday1/Session1/subject1.ASF
:FULLY-SPECIFIED
:DEGREES
351
root 0 0 0 1.7924155959676995 -10.227410587160755 0.9061337733674372
lowerback 0.21306597663499338 -1.5958746025746244 -2.6392971657396753
upperback -0.4756113318823659 -2.0757204820010973 1.9704264164648493
thorax -0.5085157957071988 -1.0400174905738102 3.4505993419056287
lowerneck -25.818896697859586 -1.8029216348127308 -7.448597776236036
upperneck 23.234189828582018 -0.05399807153215774 2.4845100472013657
head 12.05996452449162 -0.5063535052574949 2.2729171878699814
rclavicle 2.9361048774117703E-15 -5.669489204468212E-16
rhumerus -32.70231991530879 -4.866051204623901 -80.30895487901557
rradius 30.042777181557867
rwrist 19.664660005500174
rhand -17.471220507359483 9.11605481829029
rfingers 7.125019999999931
rthumb 8.777394053584171 -20.62193462829211
lclavicle -3.1379259481424487E-15 2.6882682911124257E-15
lhumerus -23.215826214906816 -4.089733553103745 92.66207426583506
lradius 62.540235643820964
lwrist 2.555318605739158
lhand -28.225443904846426 21.068436778231217
lfingers 7.12502000000001
lthumb -1.6322078033432783 51.082950410109405
rfemur -0.8239560373763446 8.920237613933619 39.01706564698134
rtibia 17.152292049938175
rfoot -23.582959739381074 -8.57468749846105
rtoes 7.981854814097693
lfemur -22.15463344056819 2.878971011062265 -12.616238267387454
ltibia 57.75191269143015
lfoot -1.5334669661411446 -4.837221180614813
ltoes -8.227964879418193
352
root 0 0 0 1.7990829002273774 -10.229486089390374 0.9160524691972314
lowerback 0.15716349678031083 -1.587205625773692 -2.655880845452729
upperback -0.4923450259156124 -2.0679881142525405 1.9441669210202888
thorax -0.49695487858795917 -1.0336832610234261 3.4296689573241803
lowerneck -25.84932930729245 -1.8503367310567505 -7.480067405487256
upperneck 23.305641938485525 -0.13161819875947023 2.547037917554359
head 12.089779702383044 -0.5376730176721981 2.2895684832419896
rclavicle 4.89333604975529E-16 -6.506818947856175E-16
rhumerus -31.8636634154142 -3.921369015718834 -81.26105715522013
rradius 30.811065908897792
rwrist 19.08304830034375
rhand -17.7377088922066 9.22731000163351
rfingers 7.125019999999929
rthumb 8.518854767167648 -20.522840349299276
lclavicle -3.4469507964919714E-15 2.686324150756394E-15
lhumerus -22.848986115159004 -3.497630490858882 92.54700983894455
lradius 62.319426088344315
lwrist 2.3883159210615377
lhand -28.314971967892227 20.945731190559645
lfingers 7.12502000000001
lthumb -1.7191786490781578 50.95153730157594
rfemur 2.556027527975056 8.842503707869298 38.80644021372882
rtibia 18.84592322496676
rfoot -24.0699936408905 -8.270212329475395
rtoes 5.819775382581356
lfemur -24.921296264975915 2.5221181486614066 -12.07420110347586
ltibia 54.71800528813149
lfoot -2.9518734298345928 -3.143075710922605
ltoes -7.435134396195009
353
root 0 0 0 1.8072355777636493 -10.239958900380561 0.9255633525369873
lowerback 0.10524751638534902 -1.5832054978389443 -2.668792028018403
upperback -0.5016117117808662 -2.065845270530607 1.9190835495741367
thorax -0.4789781397707683 -1.0308460432222806 3.4082286550748835
lowerneck -25.8899704187633 -1.8944256749591082 -7.509212609593948
upperneck 23.388758373508377 -0.19985390445993934 2.596079119021833
head 12.12486148368967 -0.5662411376216998 2.3025335866860988
rclavicle -3.042851671040747E-15 -8.551251355648651E-16
rhumerus -31.036296166138442 -2.362669502934915 -82.06338513785973
rradius 31.535196043011634
rwrist 18.512732194710118
rhand -18.112209421449784 9.298726832839332
rfingers 7.125019999999933
rthumb 8.157234762257008 -20.466524563296375
lclavicle -4.372565173663955E-15 2.5623024960378816E-15
lhumerus -22.52383018643864 -2.970941349362641 92.4041794048422
lradius 62.04069615281358
lwrist 2.3204134911412213
lhand -28.329408591391555 20.830208255097993
lfingers 7.125020000000009
lthumb -1.735941901596842 50.83084858375648
rfemur 6.269312490267625 8.750769066131282 38.50639465613935
rtibia 20.872316000354616
rfoot -24.09651163703588 -7.747799883322098
rtoes 3.3098332297901845
lfemur -28.482379459239322 1.427666949899704 -11.193678548500364
ltibia 47.352846506898764
lfoot -4.341259697229575 -0.736965341306492
ltoes -6.052295837954919
354
root 0 0 0 1.8112775102336733 -10.268222867194153 0.9341187029260897
lowerback 0.04559704911701745 -1.5827329397026904 -2.680645926183404
upperback -0.5165332737371757 -2.0675017146531043 1.8895314842926114
thorax -0.46244330525932065 -1.0299544788296486 3.3821563681367004
lowerneck -25.910857604734122 -1.926889948404335 -7.53840946275636
upperneck 23.553442639976044 -0.24602097596710049 2.619194263470433
head 12.186769452528306 -0.590677840353297 2.3101780318213483
rclavicle -3.2597497939379004E-15 -1.6276612094270368E-15
rhumerus -30.547938938262845 -0.986055784595619 -82.395399891807
rradius 31.916287524555536
rwrist 18.156460326780188
rhand -18.405989150887457 9.334524442211434
rfingers 7.125019999999938
rthumb 7.873444801871554 -20.4412501126085
lclavicle -5.031786085121038E-15 2.3985968524713795E-15
lhumerus -22.221866735452963 -2.4605969644254397 92.24646248235769
lradius 61.78860223609023
lwrist 2.2971315528219947
lhand -28.306793183214044 20.770241095984098
lfingers 7.125020000000008
lthumb -1.7177173411242581 50.768756178496126
rfemur 10.359617554690676 8.610598584080973 37.943625708975006
rtibia 23.42203742028395
rfoot -23.143976123771992 -6.777310561897147
rtoes 0.05111731463313962
lfemur -31.91176180866059 -1.0198339333890707 -10.066789522275535
ltibia 35.0405941327965
lfoot -4.818426767636438 2.1505101321043734
ltoes -3.448780682854716
355
root 0 0 0 1.8112649594441013 -10.300150986033064 0.9372246273202223
lowerback -0.011981385072759254 -1.5818766912216633 -2.6937206521476873
upperback -0.5389017320286504 -2.0672484916789484 1.8578132682861017
thorax -0.45499830959375487 -1.0281069450361544 3.355092826700136
lowerneck -25.84994860990069 -1.9337670899244965 -7.56923896761561
upperneck 23.82841438173185 -0.25670246221982007 2.616118655246508
head 12.276681114679631 -0.6053342287319964 2.3153957206531848
rclavicle -2.1769266424006093E-15 -2.2382159252514382E-15
rhumerus -30.418152718667724 -0.3868257255222236 -82.3987171065665
rradius 31.984312350863092
rwrist 18.0294929355686
rhand -18.531539959573813 9.363426936140522
rfingers 7.125019999999939
rthumb 7.751319509455849 -20.413380765091222
lclavicle -5.148958715986301E-15 2.3365807794242144E-15
lhumerus -21.954686691349 -1.851774242237386 92.12809096896748
lradius 61.584746379438336
lwrist 2.224804480055056
lhand -28.30755902853444 20.75373975349163
lfingers 7.125020000000009
lthumb -1.719934925628941 50.74928500276481
rfemur 14.550480606183175 8.14390308404006 36.71188296983537
rtibia 28.11472482097994
rfoot -20.039821394202743 -5.012888689142397
rtoes -4.219203922318912
lfemur -31.994965973672265 -3.9455095191099256 -9.03450184639859
ltibia 24.846678888132956
lfoot -3.960677676018771 3.834732215695437
ltoes -2.2106734471548144
